PathFileType	4	(X/Y/Z)	C:/Users/opensim2020/Desktop/walking_exp_matlab/subject01_walking11_straight_03.trc	
DataRate	CameraRate	NumFrames	NumMarkers	Units	OrigDataRate	OrigDataStartFrame	OrigNumFrames	
100.00	100.00	8	44	mm	100.00	3123	338	
Frame#	Time	LFHD			RFHD			LBHD			RBHD			C7			T10			CLAV			STRN			RBAK			LSHO			LUPA			LELB			LFRM			LWRA			LWRB			LFIN			RSHO			RUPA			RELB			RFRM			RWRA			RWRB			RFIN			LASI			RASI			LPSI			RPSI			LTHI			LKNE			LTIB			LANK			LHEE			LTOE			RTHI			RKNE			RTIB			RANK			RHEE			RTOE			*39			*40			*41			*42			*43			
		X1	Y1	Z1	X2	Y2	Z2	X3	Y3	Z3	X4	Y4	Z4	X5	Y5	Z5	X6	Y6	Z6	X7	Y7	Z7	X8	Y8	Z8	X9	Y9	Z9	X10	Y10	Z10	X11	Y11	Z11	X12	Y12	Z12	X13	Y13	Z13	X14	Y14	Z14	X15	Y15	Z15	X16	Y16	Z16	X17	Y17	Z17	X18	Y18	Z18	X19	Y19	Z19	X20	Y20	Z20	X21	Y21	Z21	X22	Y22	Z22	X23	Y23	Z23	X24	Y24	Z24	X25	Y25	Z25	X26	Y26	Z26	X27	Y27	Z27	X28	Y28	Z28	X29	Y29	Z29	X30	Y30	Z30	X31	Y31	Z31	X32	Y32	Z32	X33	Y33	Z33	X34	Y34	Z34	X35	Y35	Z35	X36	Y36	Z36	X37	Y37	Z37	X38	Y38	Z38	X39	Y39	Z39	X40	Y40	Z40	X41	Y41	Z41	X42	Y42	Z42	X43	Y43	Z43	X44	Y44	Z44	

296	2.950	1320.60046	920.75055	1667.85388	1423.54102	968.11798	1671.77441	1365.23987	808.63104	1636.28503	1475.28918	855.65448	1639.85278	1397.25256	768.51556	1435.67920	1411.83533	726.81738	1143.50842	1387.85364	910.14423	1365.36011	1381.03979	950.97742	1209.44214	1477.79980	713.44568	1241.57690	1233.18066	840.90039	1397.90576	1146.20398	834.82013	1216.04639	1139.33325	857.04462	1066.55957	1111.03394	923.97253	975.13580	1127.65088	1032.79260	887.21704	1100.99780	982.55786	867.84564	1090.78589	1050.23108	816.55688	1542.62573	854.20782	1395.95850	1645.54895	788.73596	1200.12610	1650.50439	784.05487	1075.90100	1684.45276	807.20190	958.50250	1671.48816	884.71393	839.08813	1708.83325	839.98370	842.14532	1707.80090	873.80963	761.53357	1295.65686	884.28595	929.27209	1510.88831	906.43927	938.72845	1368.72351	703.03308	947.72552	1513.30212	721.28448	951.06030	1260.21277	825.76074	596.85040	1282.27625	805.95502	463.07220	1284.40613	733.88141	287.13672	1349.61194	684.58209	76.81163	1405.09338	640.44476	50.22156	1333.59265	828.51788	37.98295	1586.59888	930.15869	614.77600	1555.00317	990.70081	470.38919	1571.84949	994.42480	298.18341	1532.84790	1038.98169	92.82756	1485.77209	1001.33936	39.55629	1518.68494	1182.26465	94.61349	1404.18640	953.56714	1706.40039	-3101.91235	1973.05457	1023.34198	-3140.75146	2012.40552	1022.07440						 
297	2.960	1321.04065	927.12177	1667.23633	1423.93665	974.62207	1671.05212	1365.79431	814.66846	1635.83875	1475.87341	862.20850	1639.26538	1398.04199	774.91174	1435.00000	1412.40796	733.88776	1142.81482	1388.23828	916.41229	1364.73010	1381.28699	957.30304	1208.88342	1478.38879	719.99139	1240.80347	1233.73877	846.88715	1397.37952	1146.89331	840.81653	1215.45190	1139.84241	863.54437	1065.95972	1111.28015	930.66309	974.93390	1127.09412	1039.97778	887.55463	1100.76196	989.60040	867.94012	1089.80945	1057.51978	817.10724	1542.92603	860.63824	1395.08167	1645.96155	795.21863	1199.42444	1650.81543	790.31073	1075.22058	1684.75635	813.21442	957.80823	1671.74866	890.63086	838.25702	1709.38306	846.09064	841.61670	1708.05823	879.60565	760.73987	1295.55811	890.02740	928.60974	1510.63916	913.41504	938.00818	1369.31274	709.48553	947.00641	1513.74121	728.16510	950.07288	1260.26794	830.26941	596.45514	1282.32410	809.59729	462.67828	1284.43616	736.21375	287.45798	1349.58655	685.06866	77.42819	1404.79163	640.45685	51.02998	1333.56531	828.62817	37.99133	1586.61108	936.56665	613.66461	1554.56128	997.30225	470.06021	1571.76331	1004.36688	297.99661	1532.66626	1052.29663	93.44067	1485.97986	1015.03497	39.41041	1516.85474	1195.47852	97.40665	1404.62122	960.03864	1705.68970	-3102.01978	1973.02600	1023.54358	-3140.65942	2012.43152	1021.91187						 
298	2.970	1321.54675	933.34589	1666.58447	1424.38330	981.08344	1670.37451	1366.57507	821.00482	1635.26331	1476.53699	868.75928	1638.63513	1398.82361	781.21692	1434.26135	1413.09644	739.88641	1142.19739	1388.75171	922.75140	1364.12158	1381.61902	963.66492	1208.33411	1479.13708	726.58990	1240.02600	1234.38916	852.93140	1396.84607	1147.51489	847.06903	1214.88062	1140.82202	869.93829	1065.64075	1111.47522	937.25122	974.68811	1126.32617	1047.10571	887.82678	1100.94299	996.25208	867.86127	1088.90247	1064.48608	817.47028	1543.74097	867.28027	1394.52991	1646.45752	801.78271	1198.66772	1651.20227	796.71533	1074.50159	1685.09253	819.47632	957.07996	1672.07642	896.68933	837.39227	1709.58667	852.03571	840.77631	1708.33289	885.55927	759.90533	1295.20520	896.39471	928.14124	1510.43530	920.46503	937.26532	1370.00061	715.99658	946.30591	1514.44226	735.19482	949.28961	1260.37732	834.79211	596.07697	1282.30884	813.39032	462.28699	1284.44165	738.38635	287.67462	1349.40833	684.80591	77.77057	1404.82483	640.49115	52.17630	1333.51746	828.72870	38.01938	1587.03967	943.56036	612.99664	1554.13989	1004.28992	469.67554	1571.69055	1013.77692	297.83298	1532.56677	1064.14380	93.78733	1486.10925	1027.29175	39.10478	1515.19592	1207.33691	99.44859	1405.11743	966.49597	1705.00940	-3101.99048	1973.14075	1023.38562	-3140.68872	2012.47925	1022.12518						 
299	2.980	1322.26990	939.58008	1665.87158	1424.96155	987.53613	1669.69727	1367.44250	827.27661	1634.55872	1477.34668	875.28455	1637.98157	1399.75732	787.48419	1433.54712	1413.87500	746.36328	1141.38379	1389.33606	929.09442	1363.50525	1381.98169	970.10223	1207.75366	1479.92200	733.21008	1239.11829	1235.14563	858.89172	1396.32458	1148.32544	853.18365	1214.34277	1141.35339	876.29773	1065.05737	1111.77490	943.85107	974.42664	1125.62866	1054.09766	888.07043	1100.81665	1003.10693	867.80768	1088.06824	1071.38513	817.82288	1544.51770	873.90094	1393.82446	1647.08972	808.43402	1197.86475	1651.70654	803.20972	1073.72327	1685.50232	825.79150	956.23627	1672.45142	902.86896	836.47388	1709.65503	858.02399	839.60034	1708.58325	891.54077	758.84674	1295.11548	902.66113	927.60474	1510.33459	927.50867	936.53644	1370.78455	722.56494	945.58282	1515.21265	742.33014	948.37476	1260.51514	839.44135	595.66449	1282.30408	817.19550	461.93967	1284.48291	740.74872	287.95145	1349.39587	685.83813	78.76073	1404.78394	640.84644	53.01973	1333.50122	828.79779	38.02523	1587.10364	950.69635	612.02222	1553.79248	1011.55658	469.33191	1572.15002	1023.01453	297.96722	1532.15662	1074.50305	93.45390	1485.95605	1038.15894	39.16952	1513.94299	1217.86084	100.48234	1405.67102	972.89539	1704.34021	-3102.03711	1973.02588	1023.98981	-3140.58618	2012.51257	1022.14063						 
300	2.990	1322.90613	945.76971	1665.19470	1425.57971	993.92078	1669.05493	1368.44580	833.55774	1633.87830	1478.21326	881.79816	1637.29785	1400.77759	793.68896	1432.85437	1414.72510	753.05164	1140.51611	1390.08423	935.46289	1362.88025	1382.43628	976.57104	1207.17786	1480.85461	739.91479	1238.19250	1235.95410	864.95331	1395.78088	1149.12988	859.51642	1213.81531	1142.19421	882.96570	1064.62939	1112.15808	950.39514	974.22870	1125.15100	1060.87158	888.01935	1100.68689	1009.73016	867.62885	1087.43494	1078.11584	817.95679	1545.15857	880.42029	1392.88184	1647.77637	815.06927	1196.98694	1652.31384	809.76471	1072.90344	1685.97729	832.20911	955.33966	1672.82922	909.19702	835.48920	1710.72827	864.71094	839.25116	1709.06445	897.84113	758.03204	1295.05896	909.42340	927.20514	1510.30261	934.64832	935.69556	1371.59998	729.25385	944.80017	1515.85522	749.40063	947.28302	1260.68738	844.10339	595.19812	1282.29138	821.12976	461.55939	1284.54163	743.15454	288.22308	1349.22632	685.74817	79.38071	1404.80408	641.06927	54.31288	1333.46265	828.81396	37.95808	1587.25537	958.31042	611.49567	1553.41357	1019.11853	468.90344	1571.68066	1031.04907	297.01865	1532.25427	1084.09509	93.52974	1485.99841	1047.56091	38.69237	1513.33875	1227.40076	100.99137	1406.33484	979.25470	1703.67590	-3102.03882	1972.97546	1023.98584	-3140.68799	2012.43762	1022.06799						 
301	3.000	1323.82520	951.80450	1664.57532	1426.28809	1000.31287	1668.38916	1369.64880	838.80963	1633.33398	1479.20605	888.32367	1636.62036	1401.95276	800.08344	1432.06226	1415.72229	759.80219	1139.67505	1390.83875	941.84595	1362.22583	1382.98730	983.07245	1206.58936	1481.83923	746.59308	1237.23303	1236.92944	871.08124	1395.16956	1150.05103	865.74060	1213.28455	1142.76172	889.32538	1064.11084	1112.45715	956.82788	973.83514	1124.60583	1067.61975	888.07336	1100.66638	1016.26569	867.41705	1086.74658	1084.57629	817.78113	1546.20703	887.06769	1392.21558	1648.62476	821.84869	1196.11157	1652.95154	816.44440	1071.98645	1686.57959	838.84540	954.42200	1673.35181	915.66803	834.52319	1711.11108	871.11639	838.12408	1709.39685	904.14771	756.89240	1295.26489	915.51251	926.49451	1510.39880	941.91699	934.90527	1372.50244	735.97705	944.00537	1516.69287	756.60327	946.24066	1260.79126	848.92810	594.88885	1282.27979	825.03912	461.26099	1284.57629	745.45282	288.66626	1349.00696	686.48901	80.14561	1404.67383	641.06573	55.76642	1333.37341	828.84924	37.91953	1586.84302	966.14240	610.61432	1553.15076	1026.81445	468.39758	1571.49194	1038.89343	296.20819	1531.66431	1091.65857	92.13123	1485.76013	1055.45593	37.86750	1512.70227	1235.34436	100.45040	1407.08765	985.56885	1703.03625	-3101.89697	1973.10657	1023.46112	-3140.65430	2012.52661	1021.90918						 
302	3.010	1324.68140	957.94934	1663.96460	1427.09534	1006.62061	1667.82556	1370.84729	844.96259	1632.64050	1480.33264	894.82928	1635.93457	1403.04260	806.56274	1431.25159	1416.88379	766.25000	1139.10547	1391.71606	948.22461	1361.58960	1383.62781	989.65137	1205.99939	1482.88770	753.32355	1236.29321	1237.94543	877.24512	1394.60681	1150.95276	871.96332	1212.75085	1143.63208	895.71899	1063.57202	1112.85669	963.12982	973.45319	1124.29102	1074.10901	887.80536	1100.63879	1022.64337	867.12726	1086.20166	1090.92175	817.61395	1547.05359	893.68005	1391.26404	1649.47070	828.68109	1195.15015	1653.57825	823.21381	1070.96875	1687.15015	845.52527	953.37775	1673.88403	922.26807	833.47443	1711.60364	877.68793	837.06421	1709.95203	910.79620	756.01135	1295.47339	922.06207	925.97772	1510.31348	949.05365	933.96014	1373.50720	742.78217	943.24707	1517.58521	763.92609	945.21100	1260.96533	853.74561	594.60706	1282.25244	828.94299	460.99960	1284.59912	747.92377	289.22278	1348.80432	686.96216	81.11760	1404.38940	641.39447	56.88815	1333.21265	828.86835	37.94857	1586.50940	974.45544	610.04260	1552.91528	1034.53845	467.77689	1571.41272	1046.25562	295.27423	1531.02319	1098.00610	90.84052	1486.46924	1062.36133	37.11650	1512.34082	1241.97791	98.55957	1407.92017	991.83594	1702.42761	-3102.02783	1973.00806	1023.79718	-3140.64917	2012.55237	1022.10187						 
303	3.020	1325.78333	963.94574	1663.41528	1427.95471	1012.95929	1667.26953	1372.15430	851.13959	1631.96057	1481.51929	901.34735	1635.25269	1404.46985	812.82629	1430.61658	1418.04236	773.21399	1138.13867	1392.74377	954.72784	1360.99036	1384.38464	996.32428	1205.46619	1484.07043	760.13153	1235.37720	1239.07568	883.40369	1394.08777	1151.84534	878.47125	1212.37183	1144.47290	902.29199	1063.25024	1113.32019	969.46942	973.16895	1124.14343	1080.37769	887.36639	1100.60925	1028.89294	866.77893	1085.84680	1097.09717	817.37256	1548.35889	900.38739	1390.60986	1650.47473	835.57068	1194.19324	1654.44958	830.13843	1070.06885	1687.89465	852.37524	952.38611	1674.42725	929.03015	832.40149	1711.87964	884.24530	835.76849	1710.43103	917.49011	754.88745	1295.65100	928.81281	925.48279	1510.69299	956.78979	933.26251	1374.50598	749.78723	942.46289	1518.59363	771.34979	944.24097	1261.17310	858.67804	594.40637	1282.09741	832.91638	460.80646	1284.49731	750.28552	289.71964	1348.83191	687.22113	82.40766	1404.20752	641.59393	58.57136	1333.04651	828.93646	37.98953	1585.96863	982.86328	609.47858	1552.69104	1042.25745	467.06241	1571.58423	1053.34558	294.50446	1531.32275	1104.05225	89.76532	1485.55640	1067.71240	35.87567	1512.67163	1247.97302	96.88390	1408.87048	998.05646	1701.87061	-3101.91406	1972.99377	1023.79645	-3140.68872	2012.47400	1021.88123						 
